<?xml version="1.0" encoding="utf-8"?>
<!-- Generator: Adobe Illustrator 18.0.0, SVG Export Plug-In . SVG Version: 6.00 Build 0)  -->
<!DOCTYPE svg PUBLIC "-//W3C//DTD SVG 1.1//EN" "http://www.w3.org/Graphics/SVG/1.1/DTD/svg11.dtd">
<svg version="1.1" id="图层_1" xmlns="http://www.w3.org/2000/svg" xmlns:xlink="http://www.w3.org/1999/xlink" x="0px" y="0px"
	 viewBox="0 0 1440 500" enable-background="new 0 0 1440 500" xml:space="preserve">
<path fill="#FCD133" d="M720,10.4c-57.3,0-104.2,46.9-104.2,104.2S662.7,218.8,720,218.8s104.2-46.9,104.2-104.2
	S777.3,10.4,720,10.4L720,10.4z"/>
<path fill="#FCD133" d="M720,239.6c-145.8,0-187.5,142.7-187.5,208.3c0,28.1,93.8,42.7,187.5,42.7s187.5-14.6,187.5-42.7
	C907.5,382.3,865.8,239.6,720,239.6L720,239.6z"/>
<path fill="none" d="M907.5,447.9c0-65.6-41.7-208.3-187.5-208.3S532.5,382.3,532.5,447.9C532.5,505.2,907.5,505.2,907.5,447.9
	L907.5,447.9z"/>
</svg>
